<svg id="Layer_1" data-name="Layer 1" xmlns="http://www.w3.org/2000/svg" viewBox="0 0 2000 1784.45"><defs><style>.cls-1{fill:#006834;}.cls-2{fill:#009444;}.cls-3{fill:#b11116;}.cls-4{fill:#ed1d24;}.cls-5{fill:#fff;}.cls-6{fill:#231f20;}.cls-7{fill:#414042;}</style></defs><path class="cls-1" d="M964,1573.16q-75.6,84.71-182,145.4t-230.19,60.68q-114.48,0-214.07-41.21T162.57,1623.54q-75.49-73.27-119-174T0,1229.68q0-114.45,42.37-216.41T159.16,835.8q74.42-75.49,176.3-119t221-43.51A506.24,506.24,0,0,1,765.94,718q99.55,44.56,175.17,120.18t120.23,176.32Q1106,1115.19,1106,1229.68v483.15c0,19.85-6.92,36.65-20.62,50.38s-30.53,20.64-50.41,20.64-36.62-6.91-50.4-20.64S964,1732.68,964,1712.83Zm0-343.48q0-84.72-32-160.29T843.81,937.77q-56.1-56.14-131.68-88.19T551.81,817.49q-84.67,0-159.13,32.09T262.2,937.77q-56.08,56-88.16,131.62t-32.12,160.29q0,84.72,32.12,159.16A414,414,0,0,0,392.68,1607.5q74.46,32.13,159.13,32.1,82.46,0,155.76-30.94a411.93,411.93,0,0,0,129.37-85.88q56.1-55,89.29-129.38T964,1229.68"/><path class="cls-2" d="M941.12,838.13Q865.55,762.56,765.93,718a506.7,506.7,0,0,0-209.49-44.7q-119.1,0-221,43.52t-176.3,119a547.93,547.93,0,0,0-48.35,56.53,925,925,0,0,0,88.46,126.91,404.53,404.53,0,0,1,62.91-81.48q56.1-56.13,130.5-88.18t159.14-32.1q84.75,0,160.31,32.1t131.65,88.18q56.06,56.1,88.22,131.63,32,75.57,32,160.29-3.19,60.19-19.37,113.59,76.7,1.85,161.32-4.27V1229.68q0-114.45-44.67-215.23T941.12,838.13"/><path class="cls-1" d="M1835.29,753.36a69.76,69.76,0,1,1,139.52,0v961.29a69.76,69.76,0,1,1-139.52,0Z"/><path class="cls-2" d="M1907.15,631.57c25.64,0,47.59-9.07,65.65-27.2s27.2-40,27.2-65.62-9.07-47.59-27.2-65.67-40-27.21-65.65-27.21-47.51,9.07-65.64,27.21S1814.3,513,1814.3,538.75s9,47.51,27.21,65.62,40,27.2,65.64,27.2"/><path class="cls-2" d="M1974.81,1054.89V753.37a69.76,69.76,0,1,0-139.51,0v381.77c47.33-22.57,95.2-49.18,139.51-80.25"/><path class="cls-1" d="M1517.9,1404.65q47.14-44.37,76.23-76.92t45.74-59.57c11-18,18.42-35,22.18-51.28a233.73,233.73,0,0,0,5.53-52c0-26.69-4.63-51.69-13.88-74.77a189.78,189.78,0,0,0-38.75-61,174.44,174.44,0,0,0-59.6-40.85q-34.62-14.6-76.2-14.6-65.09,0-112.93,35.37t-64.45,97.61q-5.49,18.11-14.52,29.84c-6,7.89-15.06,11.81-27,11.81s-22-3.92-29.81-11.81-11.84-17.77-11.84-29.84c0-20.28,6.3-42.85,18.75-67.84s30.28-48,53.33-69.29,51.07-39,83.91-53.33,70-21.43,111.49-21.43q55.41,0,103.25,22.15a278.6,278.6,0,0,1,83.83,59.55q35.92,37.38,56.76,88a275.78,275.78,0,0,1,20.83,106q0,67.93-32.64,130.22T1615,1426.78L1324,1697h382.36a42.58,42.58,0,0,1,43,43c0,12-4.2,22-12.47,29.82s-18.52,11.75-30.53,11.75H1239.43a91.62,91.62,0,0,1-13.14-1.43,47.42,47.42,0,0,1-17.34-6.17,52.57,52.57,0,0,1-15.24-13.89c-4.66-6-6.94-13.6-6.94-22.82q1.38-18.06,23.59-40.21Z"/><path class="cls-2" d="M1729.91,1064.49q-20.82-50.52-56.78-88A278.26,278.26,0,0,0,1589.32,917q-47.79-22.2-103.27-22.15c-41.52,0-78.77,7.07-111.47,21.43s-60.78,32.1-83.91,53.33-40.83,44.36-53.33,69.29-18.75,47.56-18.75,67.85c0,12.06,4,22,11.83,29.84s17.8,11.8,29.82,11.8,21-3.92,27-11.8,10.86-17.78,14.52-29.84q16.63-62.32,64.45-97.62t112.93-35.37q41.56,0,76.2,14.6a175.15,175.15,0,0,1,59.6,40.85,189.9,189.9,0,0,1,38.72,61c9.28,23.08,13.89,48.08,13.89,74.77a237.8,237.8,0,0,1-3.44,41.21c29.13-10,58-20.49,86.45-31.71,0-1.33.13-2.61.13-3.89a275.79,275.79,0,0,0-20.8-106"/><path class="cls-3" d="M887.35,1226c0-184.72-149.71-334.43-334.39-334.43S218.51,1041.28,218.51,1226,368.24,1560.41,553,1560.41,887.35,1410.7,887.35,1226"/><path class="cls-4" d="M553,891.58c-131.63,0-245.43,76.07-300,186.54,134.39,134.14,329.9,239.23,614.64,261.31A334.78,334.78,0,0,0,887.35,1226c0-184.72-149.71-334.43-334.38-334.43"/><polygon class="cls-5" points="662.58 1392.27 571.93 1214.33 647.41 1175.78 470.48 1060.93 459.41 1271.55 535 1233.11 625.72 1411.09 662.58 1392.27"/><path class="cls-6" d="M528.86,510.48s.69-18.62,29.71-4.35S654.52,562.3,732,542.68s93.43-49.74,177.4-50.74c0,0,67.28,3,106.6,30.81,0,0-7.92-33.3-94.8-47.31s-116.72-1-164.54-7.35S643.84,439,628.67,412.89s-12.88-60.26,14.4-66.49c0,0,25.48-5.09,49.56,19.72s80.63,60.45,134,53.41c53.3-6.89,63.29-13.63,63.29-13.63S765.19,416.3,707.08,276.55c0,0-31.23-69.61-52.92-128.75,0,0-76.3-224.15-337.61-120.36,0,0,65.93,9.89,68.18,72.46,0,0,8.92,95.51-11.7,179.6S361.53,569,665.1,619.24c0,0-145.87-44.21-136.24-108.76"/><path class="cls-6" d="M894.35,545.2a162.2,162.2,0,0,0-43.8,11.19c-30.92,12.25-111.37,39.37-178.27,19.49,0,0,95.74,64.83,194,42,0,0,137.69-39.68,203.26,9.09,0,0-65.69-92.85-175.19-81.81"/><path class="cls-7" d="M492.52,140.49C506.68,241.18,488.11,370.6,568.59,449c67.57,65.9,165.41,59.12,248.09,29.89,9.14-3.2,18.26-6.63,27.33-10.17-34.4-.15-57.43,3.41-87.39-.59-47.9-6.45-112.78-29.12-127.94-55.17s-12.91-60.29,14.39-66.52c0,0,25.49-5.09,49.54,19.75s80.65,60.42,134,53.41,63.29-13.66,63.29-13.66S765.2,416.32,707.08,276.55c0,0-31.22-69.59-52.92-128.76,0,0-76.3-224.14-337.61-120.36,0,0,1.67.28,4.33.9,51.25,1.15,157.93,15.34,171.64,112.16"/><path class="cls-5" d="M465.9,76.53a14.35,14.35,0,1,0-16.78,11.35A14.31,14.31,0,0,0,465.9,76.53"/></svg>