<svg id="Layer_1" data-name="Layer 1" xmlns="http://www.w3.org/2000/svg" viewBox="0 0 2000 773.84"><defs><style>.cls-1{fill:#ec1c2a;}.cls-2{fill:#231f20;}</style></defs><path class="cls-1" d="M898.94,223.33c-5.24,0-9,4.29-9,9.66V544.48L1.42,543.93v19.2l897.52.35,6.2-2.72L908,553.9V242.49h126.17V554.06l2.61,6.78,6.42,3.16H2000V544.83H1052.2V233c0-5.37-4-9.66-9-9.66Z"/><path class="cls-1" d="M877.81,92.31c0,50.82,43.33,92,96.33,92s96.51-41.2,96.51-92S1027.28,0,974.14,0,877.81,41.44,877.81,92.31Zm18.1,0c0-40.26,35-73.18,78.23-73.18s78.26,32.92,78.26,73.18-35.05,73-78.26,73S895.91,132.56,895.91,92.31Z"/><path class="cls-2" d="M229.79,497.52c-16.72-7.22-32.49-18.1-51.26-35.53-27.8-24.92-52.32-50-70.26-73,0,0,15.46-.87,23.14-2.29,11-2,19.92-3.74,29.93-8.43,15.06-6.83,22.24-13.06,29.73-23.19s11.63-23.86,11.63-34.66c0-19.08-10.45-35.68-28.15-48.89-16.52-12.46-46.09-19.91-69-21.33-17-1-33.12-.59-33.12-.59H43.29v0c-5,0-6.07,0-9.07,0v0H2.92c5.12,2.48,8.2,7.25,9.5,13.88l.86,6.54V483.92l-.86,6.42c-1.07,5.8-3.4,9.7-7.29,12.46l-2.21,1.3h52l-2.13-1.3c-5.55-4.18-8.08-10.56-8.36-18.88V394.17H65l3.35,4.15c11.67,14.47,23.81,26.17,36.19,38.95,26.1,27.52,57.65,48.22,98.58,65l14,3.23h33.91S232.27,499,229.79,497.52ZM45.1,362.47v-81.3c0-5.68-1.73-8.16-1.73-8.16s128.38-12.14,128.38,47.2C171.75,375.37,45.1,362.47,45.1,362.47Z"/><path class="cls-2" d="M516.12,504.14h21.49a41.07,41.07,0,0,1-16.36-17.5L396,239.38l-8.28,11.71v.11L381,260.27l-.08-.43-10.25,12.89,1,.16a7.23,7.23,0,0,1,3.39,1.7l1.81,3,1.14,2.45,2.41,4.18L274.54,484.59c-5.32,10.05-11.08,17.7-13.13,19l-1.22.75h34.66l-1.62-1.1a11.49,11.49,0,0,1-3.67-8.36,28.58,28.58,0,0,1,3.32-7.5c2.28-4.77,40.37-75.43,40.37-75.43H442.79l39.43,74.65,2.44,5.16.63,3a10,10,0,0,1-5.68,9.34h36.51ZM339.05,398.71l49.72-98.53,50.86,98.53Z"/><path class="cls-2" d="M1337.83,504.14h21.92a39.31,39.31,0,0,1-16.64-17.5L1217.65,239.38l-8.16,11.71.12.11-6.79,9.07-.08-.43-10.45,12.89,1.3.16a10.3,10.3,0,0,1,3.55,1.7l1.42,3,1.35,2.45,2.44,4.18L1096.29,484.59c-5.13,10.05-11,17.7-13,19l-1.26.75h34.78l-1.5-1.1a11.1,11.1,0,0,1-4.1-8.36,42.79,42.79,0,0,1,3.39-7.5C1117.11,482.65,1155,412,1155,412h109.72l39.35,74.65,2.53,5.16.39,3a9.85,9.85,0,0,1-5.6,9.34h36.44Zm-177.2-105.43,50-98.53,50.94,98.53Z"/><path class="cls-2" d="M1641.51,250.77l2.52,1.3a11,11,0,0,1,7.42,8.84,46.82,46.82,0,0,1,.31,5.4l.55,183.62L1529.37,340.75l-96.87-84.54c-.08-.59-.52-3.07-.2-3.15l1.34-2.29H1376l2,1.3s2.73,1.5,6.47,4.06c3.83,2.29,10.41,10.18,10.41,10.18h0V493.46c0,4.06-2.52,7.05-7.37,9.15l-2.8,1H1427c-5.64-1.11-9-4.57-9.9-10.17a17.06,17.06,0,0,1-.59-5.37V276.16h.15l259,229-.31-238.82a19.91,19.91,0,0,1,.51-5.13c.87-5.56,4.1-8.83,10.18-10.41Z"/><path class="cls-2" d="M1858.69,250.77v.32h-12v-.32h-140l4.33,30.13h1.3l2.53-2.29a21.21,21.21,0,0,1,15.3-6.08h104.4v211l-.59,7.42c-1.14,5.24-3.54,9.42-7.73,12.38l-1.93,1.26h56.9c-5.76-2.25-8.91-6.78-9.94-13.64l-.55-7.42v-211h104.33a21.1,21.1,0,0,1,15.22,6.08l2.44,2.29H1994l4.77-30.13Z"/><path class="cls-2" d="M807,282.87c-29.29-19.72-70.34-30.25-123-31.27H551.1c5.56,2.6,8.87,7.17,9.82,13.8l.78,6.66V484.11l-.78,6.67a16.83,16.83,0,0,1-7.66,12l-2.16,1.42h22.51v-.08h12.07v.08H694.19c27,.16,51.29-3.35,73.34-10.76,26.8-8.87,49.08-24.88,67.18-47.51,17.66-22,26.42-45.23,26.58-69.56C861.29,338.54,843.31,307.39,807,282.87Zm6.19,137.68c-11.55,20.55-28.9,36.55-51.37,48C738,480.52,712,486.52,684.09,486.52H597.5V267.57h47.63l34.7.2q34.42,1,62.77,10.92c25.16,8.83,45.43,22,60.33,39.78,14.83,17.19,22.4,36.55,22.4,58.08C825.48,391.93,821.39,406.4,813.22,420.55Z"/><path class="cls-2" d="M10,646.64H34.85C57,646.64,66,659.06,66,673.45c0,15.18-8.71,27.37-32.45,27.37H10ZM0,638v134.1H10V709.37H34.22c33,0,42.43-18.65,42.43-36C76.65,654.09,64.9,638,35,638Z"/><path class="cls-2" d="M229,772.14H219V708.46H134v63.68h-9.74V638H134v61.79h85V638h10Z"/><path class="cls-2" d="M366.61,717.14H312.12l27-63.28Zm-24.61-80h-5.28l-58.9,135h10.36l20.07-46.33h62l20.35,46.33h10.17Z"/><path class="cls-2" d="M452,646.64h20.94c23.34,0,33.52,11.08,33.52,26.18,0,16.09-10.89,26.3-33,26.3H452Zm-9.74-8.6v134.1H452V707.75h17.31c15.38,0,20.27,2.17,35.57,27.53l22.08,36.86H538.6L510,725.81c-6.07-9.62-11-17.35-17-20.62,16-6.23,24.17-17.11,24.17-32.57,0-18-11.16-34.58-42.23-34.58Z"/><path class="cls-2" d="M676.72,638h10.09v134.1H676.72V653.26h-.28l-48,62.58-48.18-62.58h-.4V772.14h-9.9V638h9.9l48.58,62.38Z"/><path class="cls-2" d="M813.66,717.14H759.05l27.24-63.28Zm-24.6-80h-5.37l-58.79,135H735l20.35-46.33h62.1l20.15,46.33H847.8Z"/><path class="cls-2" d="M986.31,658.82c-15.81-8.87-30.16-13.05-45.38-13.05-31.62,0-55.63,25.35-55.63,59.42,0,34.58,23.81,58.87,57.05,58.87,14.24,0,27.8-4,45.27-13.72v10.88c-14.67,8.28-30.44,12.62-45.27,12.62-38.64,0-67.81-29.26-67.81-68.65,0-41,32.17-69,67-69,14.23,0,29.18,3.67,44.82,11.24Z"/><path class="cls-2" d="M1102.36,646.64h-59.19v53.78H1101v8.64h-57.84v54.41h60.69v8.67H1033.2V638h69.16Z"/><path class="cls-2" d="M1254.24,638v73.07c0,46-27.44,62.73-53.35,62.73-28.67,0-53.11-20.15-53.11-60.37V638h9.9V713.2c0,35,20.34,50.86,43.21,50.86,21.73,0,43.57-14.16,43.57-52.44V638Z"/><path class="cls-2" d="M1398.51,646.64h-47.75v125.5h-10V646.64h-47.56V638h105.32Z"/><path class="cls-2" d="M1450,772.14h-9.89V638H1450Z"/><path class="cls-2" d="M1611.42,658.82c-15.81-8.87-30.31-13.05-45.54-13.05-31.38,0-55.4,25.35-55.4,59.42,0,34.58,23.75,58.87,56.74,58.87,14.56,0,28-4,45.51-13.72v10.88c-14.79,8.28-30.44,12.62-45.27,12.62-38.64,0-67.58-29.26-67.58-68.65,0-41,31.94-69,66.6-69,14.23,0,29.37,3.67,44.94,11.24Z"/><path class="cls-2" d="M1741,717.14h-54.57l27.28-63.28Zm-24.41-80h-5.56l-58.75,135h10.33l20.07-46.33H1745L1765,772.14h10.37Z"/><path class="cls-2" d="M1827,763.47h63v8.67h-72.86V638H1827Z"/><path class="cls-2" d="M1990.93,656.06c-13.21-7.8-19.91-10.29-28.62-10.29-15.3,0-27,11.12-27,25.63,0,35.76,60.65,18.69,60.65,65.81a36.37,36.37,0,0,1-36.87,36.63c-10.29,0-21.57-3.91-32.69-11.75V749.9c14.08,10.77,22.4,14.16,32.06,14.16,15.14,0,27.09-11.4,27.09-26.7,0-38-60.64-21.33-60.64-65.53,0-19.91,16.36-35.64,36.51-35.64,9.58,0,19.4,2.8,29.49,8.52Z"/></svg>