<?xml version="1.0" standalone="no"?>
<!DOCTYPE svg PUBLIC "-//W3C//DTD SVG 1.0//EN" "http://www.w3.org/TR/2001/REC-SVG-20010904/DTD/svg10.dtd">
<svg xmlns="http://www.w3.org/2000/svg" xmlns:xlink="http://www.w3.org/1999/xlink" id="body_1" width="80" height="80">

<g transform="matrix(4.385335 0 0 4.385335 10.500002 -0)">
    <path d="M6.71 11.69C 6.3452005 12.091616 5.91598 12.4295845 5.44 12.69C 4.955555 12.975836 4.4024677 13.124477 3.8400002 13.12C 2.8245099 13.117676 1.8508399 12.715274 1.13 12C 0.7792628 11.668221 0.4972396 11.270671 0.3 10.83C 0.09532428 10.346217 -0.0068256855 9.825254 0 9.3C -0.00060391426 8.786013 0.09785867 8.276724 0.29 7.8C 0.4810772 7.337796 0.7594943 6.9167757 1.11 6.5600004C 1.4575572 6.207613 1.8724544 5.928747 2.33 5.7400002C 2.8159604 5.5299644 3.3406224 5.4243507 3.87 5.4300003C 4.3728547 5.4313765 4.8699713 5.536928 5.33 5.7400002C 5.7837496 5.944574 6.1969967 6.2291045 6.55 6.5800004C 6.9034147 6.932626 7.185261 7.350302 7.38 7.8100004C 7.5898323 8.278417 7.6955953 8.786762 7.69 9.3L7.69 9.3L7.69 12.67C 7.694213 12.80109 7.643458 12.9279785 7.55 13.02C 7.353498 13.205407 7.0465026 13.205407 6.8500004 13.02C 6.7565427 12.9279785 6.7057877 12.80109 6.7100005 12.67L6.7100005 12.67L6.71 11.69zM6.71 9.299999C 6.710099 8.918158 6.631817 8.540362 6.48 8.19C 6.209195 7.5038414 5.676785 6.9534445 5 6.66C 4.6489954 6.511342 4.2711697 6.4364576 3.8899999 6.44C 3.5088296 6.4364576 3.131004 6.511342 2.7799997 6.66C 2.441796 6.805755 2.1333208 7.012535 1.8699996 7.27C 1.6096387 7.534782 1.4025543 7.847106 1.2599996 8.19C 1.097583 8.538065 1.0090551 8.916012 1 9.3C 0.99470663 9.681332 1.0696616 10.059514 1.22 10.41C 1.3625708 10.749927 1.5697315 11.0589695 1.83 11.32C 2.0933216 11.577465 2.401796 11.784245 2.74 11.929999C 3.4392505 12.229647 4.2307496 12.229647 4.9300003 11.929999C 5.267016 11.792028 5.573021 11.588024 5.8300004 11.329999C 6.0952177 11.074856 6.3061085 10.7687235 6.4500003 10.429999C 6.6051865 10.07245 6.693318 9.689418 6.71 9.3" stroke="none" fill="#006834" fill-rule="nonzero" />
    <path d="M6.55 6.58C 6.1969967 6.2291045 5.7837496 5.944574 5.33 5.74C 4.8699713 5.536928 4.3728547 5.4313765 3.87 5.43C 3.3406224 5.4243507 2.8159604 5.5299644 2.33 5.74C 1.8724539 5.928746 1.4575574 6.207611 1.1099999 6.56C 0.98713946 6.69905 0.8735595 6.846036 0.77 7C 0.95154667 7.3102493 1.1589499 7.6046286 1.39 7.88C 1.5071678 7.671606 1.6517942 7.4798923 1.8199999 7.31C 2.083321 7.052535 2.3917964 6.845755 2.73 6.7C 3.0810044 6.551342 3.4588299 6.4764576 3.8400002 6.48C 4.235071 6.456748 4.630553 6.518116 5 6.66C 5.676785 6.9534445 6.209195 7.5038414 6.48 8.19C 6.631817 8.540363 6.710099 8.9181595 6.71 9.3C 6.6960397 9.568092 6.6490164 9.833435 6.57 10.09C 6.9430833 10.109589 7.316917 10.109589 7.69 10.09L7.69 10.09L7.69 9.3C 7.6955953 8.786762 7.5898323 8.278417 7.38 7.8100004C 7.185261 7.350302 6.9034147 6.932626 6.55 6.5800004" stroke="none" fill="#009444" fill-rule="nonzero" />
    <path d="M12.77 6C 12.767312 5.8709726 12.816693 5.746298 12.907003 5.654106C 12.997314 5.561914 13.120944 5.5099726 13.25 5.51C 13.520619 5.51 13.74 5.7293806 13.74 6L13.74 6L13.74 12.690001C 13.740028 12.8190565 13.6880865 12.942686 13.595895 13.032997C 13.503702 13.123307 13.379028 13.1726885 13.25 13.17C 13.121871 13.172756 12.998174 13.123071 12.907552 13.032449C 12.81693 12.941827 12.767244 12.81813 12.77 12.690001L12.77 12.690001L12.77 6z" stroke="none" fill="#006834" fill-rule="nonzero" />
    <path d="M13.27 5.14C 13.621218 5.134637 13.904637 4.851217 13.910001 4.5C 13.925514 4.31318 13.855667 4.1293716 13.72 4C 13.605284 3.8735108 13.440657 3.8040016 13.27 3.81C 12.9110155 3.8100002 12.620001 4.101015 12.620001 4.46C 12.614002 4.6306553 12.683511 4.795283 12.81 4.91C 12.930069 5.0347977 13.096861 5.1036897 13.27 5.1" stroke="none" fill="#009444" fill-rule="nonzero" />
    <path d="M13.74 8.09L13.74 6C 13.740028 5.8709445 13.6880865 5.7473145 13.595895 5.657004C 13.503703 5.5666933 13.379028 5.5173116 13.25 5.52C 13.121871 5.517244 12.998174 5.56693 12.907552 5.6575513C 12.81693 5.748173 12.767244 5.8718715 12.77 6L12.77 6L12.77 8.65C 13.116514 8.487918 13.450743 8.300751 13.77 8.089999" stroke="none" fill="#009444" fill-rule="nonzero" />
    <path d="M10.56 10.52C 10.780001 10.320001 10.950001 10.14 11.09 9.990001C 11.207552 9.858637 11.314549 9.718204 11.41 9.570001C 11.480854 9.459794 11.531637 9.3379135 11.559999 9.210001C 11.575834 9.090524 11.575834 8.969478 11.559999 8.850001C 11.562695 8.671644 11.528655 8.494639 11.459999 8.330002C 11.401268 8.172205 11.309172 8.028943 11.189999 7.9100018C 11.077176 7.785813 10.9367285 7.6898975 10.779999 7.6300015C 10.612828 7.5571165 10.432367 7.519663 10.249999 7.5200014C 9.9669695 7.518461 9.690615 7.605915 9.459999 7.7700014C 9.235724 7.9358115 9.079352 8.177478 9.0199995 8.450002C 9.023979 8.520608 9.017236 8.591412 9 8.66C 8.9559555 8.713538 8.889253 8.743184 8.82 8.74C 8.742093 8.742641 8.666404 8.713807 8.61 8.66C 8.558823 8.601974 8.530402 8.52737 8.53 8.45C 8.52157 8.295836 8.548952 8.141813 8.61 8C 8.702982 7.8046446 8.835832 7.6309175 9 7.49C 9.172933 7.337277 9.368615 7.2124453 9.58 7.12C 9.822781 7.0296607 10.081196 6.988858 10.34 7C 10.588471 7.003063 10.833617 7.05754 11.06 7.16C 11.276248 7.2609673 11.472677 7.3998227 11.64 7.5699997C 11.808498 7.745985 11.940981 7.953201 12.030001 8.179999C 12.128487 8.414307 12.179472 8.665836 12.18 8.919999C 12.187498 9.223186 12.125946 9.524108 12 9.8C 11.813747 10.13348 11.569995 10.4314 11.28 10.68L11.28 10.68L9.28 12.55L11.94 12.55C 12.103486 12.555194 12.234807 12.686515 12.24 12.85C 12.244011 12.930137 12.210796 13.007637 12.15 13.06C 12.094241 13.11482 12.0181 13.143826 11.94 13.14L11.94 13.14L8.53 13.14C 8.490469 13.148673 8.44953 13.148673 8.41 13.14C 8.361198 13.104293 8.323147 13.055863 8.3 13C 8.282473 12.948107 8.282473 12.891893 8.3 12.84C 8.319446 12.731008 8.375971 12.632089 8.46 12.56L8.46 12.56L10.56 10.52z" stroke="none" fill="#006834" fill-rule="nonzero" />
    <path d="M12 8.15C 11.91098 7.9232016 11.778497 7.7159843 11.61 7.5399995C 11.442677 7.369822 11.246247 7.2309666 11.03 7.1299996C 10.810762 7.041793 10.5763035 6.9976196 10.34 7C 10.072438 6.9956694 9.806872 7.0467396 9.56 7.15C 9.357547 7.2350144 9.168825 7.349595 9 7.49C 8.835832 7.6309175 8.702982 7.8046446 8.61 8C 8.528546 8.143539 8.483885 8.305006 8.48 8.47C 8.476174 8.5481 8.50518 8.624242 8.559999 8.68C 8.616403 8.733808 8.692092 8.762642 8.7699995 8.76C 8.860021 8.777909 8.9517 8.738049 9 8.66C 9.04834 8.596764 9.08554 8.525745 9.11 8.45C 9.169353 8.177475 9.325725 7.935809 9.549999 7.77C 9.780615 7.605913 10.05697 7.5184593 10.339999 7.52C 10.5223675 7.519661 10.702828 7.5571146 10.869999 7.63C 11.026729 7.6898966 11.167176 7.785812 11.279999 7.9100003C 11.399171 8.028942 11.491268 8.172204 11.549999 8.33C 11.618655 8.494637 11.652695 8.671641 11.65 8.85C 11.6553135 8.946592 11.6553135 9.043409 11.65 9.14L11.65 9.14L12.25 8.92C 12.222341 8.648482 12.137114 8.385981 12 8.15" stroke="none" fill="#009444" fill-rule="nonzero" />
    <path d="M6.17 9.28C 6.1740437 8.335795 5.6078453 7.482499 4.7362814 7.119297C 3.8647177 6.756096 2.8601224 6.9548044 2.192463 7.6224637C 1.5248034 8.290123 1.3260951 9.294719 1.689297 10.166283C 2.0524988 11.037846 2.9057956 11.604044 3.85 11.6C 4.4653025 11.6 5.0554037 11.355573 5.490488 10.920488C 5.9255724 10.485403 6.1700006 9.895302 6.17 9.28" stroke="none" fill="#B11116" fill-rule="nonzero" />
    <path d="M3.85 7C 2.962621 6.999991 2.1522746 7.504034 1.76 8.3C 2.9137475 9.381841 4.419505 10.010424 6 10.07C 6.084498 9.815114 6.1283674 9.54852 6.13 9.28C 6.1086235 8.029751 5.1002474 7.0213757 3.85 7" stroke="none" fill="#ED1D24" fill-rule="nonzero" />
    <path d="M4.61 10.44L3.98 9.2L4.5 8.93L3.27 8.13L3.2 9.6L3.72 9.33L4.35 10.57L4.61 10.44L4.61 10.44" stroke="none" fill="#FFFFFF" fill-rule="nonzero" />
    <path d="M3.68 4.3C 3.68 4.3 3.68 4.17 3.89 4.3C 4.2434583 4.5333724 4.6727543 4.622809 5.09 4.55C 5.63 4.42 5.7400002 4.21 6.33 4.2000003C 6.5907907 4.2126293 6.844666 4.2881055 7.0699997 4.42C 7.0699997 4.42 7 4.15 6.41 4.06C 6.0283694 4.0151386 5.6442266 3.9950972 5.26 4C 4.9290195 3.9694536 4.616805 3.8326406 4.3700004 3.6100001C 4.2700005 3.43 4.28 3.19 4.4700003 3.15C 4.602971 3.133441 4.7351317 3.1863053 4.82 3.2900002C 5.0649366 3.5374794 5.401997 3.6715786 5.75 3.6600003C 5.901431 3.652985 6.0504127 3.6191258 6.19 3.5600004C 5.6150055 3.5712962 5.099884 3.2062495 4.92 2.6600003C 4.92 2.6600003 4.7000003 2.1800003 4.55 1.7700003C 4.3802934 1.3205223 4.0209346 0.9688082 3.5679119 0.8088043C 3.1148891 0.6488005 2.6143522 0.6968068 2.2 0.94C 2.456311 0.9757354 2.6547518 1.1824446 2.68 1.44C 2.7116418 1.8588252 2.681315 2.2800279 2.5900002 2.69C 2.45 3.28 2.5100002 4.69 4.59 5.06C 4.59 5.06 3.5900002 4.75 3.64 4.3" stroke="none" fill="#231F20" fill-rule="nonzero" />
    <path d="M6.22 4.54C 6.116445 4.5508847 6.0152245 4.577877 5.9199996 4.62C 5.5299115 4.7894125 5.0980396 4.838172 4.6799994 4.7599998C 5.0703125 5.013447 5.539395 5.116503 6 5.05C 6 5.05 7 4.77 7.41 5.11C 7.1215672 4.7312384 6.665581 4.518196 6.1899996 4.54" stroke="none" fill="#231F20" fill-rule="nonzero" />
    <path d="M3.43 1.73C 3.52 2.43 3.43 3.33 3.96 3.8700001C 4.4445763 4.266505 5.1142597 4.3482685 5.6800003 4.08L5.6800003 4.08L5.87 4C 5.63 4 5.47 4 5.2599998 4C 4.9290185 3.9694536 4.616804 3.8326406 4.37 3.6100001C 4.27 3.43 4.2799997 3.19 4.47 3.15C 4.60297 3.133441 4.735131 3.1863053 4.8199997 3.2900002C 5.0649366 3.5374794 5.401997 3.6715786 5.7499995 3.6600003C 5.90143 3.652985 6.0504117 3.6191258 6.1899996 3.5600004C 5.6150045 3.5712962 5.099883 3.2062495 4.9199996 2.6600003C 4.9199996 2.6600003 4.7 2.1800003 4.5499997 1.7700003C 4.3802934 1.3205225 4.020934 0.9688084 3.5679116 0.80880463C 3.1148891 0.64880085 2.6143522 0.696807 2.2 0.94C 2.56 0.94 3.3000002 1.04 3.4 1.72" stroke="none" fill="#414042" fill-rule="nonzero" />
    <path d="M3.24 1.28C 3.2458947 1.2545753 3.2404625 1.2278439 3.225112 1.2067367C 3.2097611 1.1856294 3.186004 1.1722254 3.16 1.17C 3.1360853 1.164062 3.110782 1.1681892 3.0899935 1.1814182C 3.069205 1.1946473 3.0547497 1.2158211 3.0500002 1.24C 3.0406897 1.2652235 3.0431445 1.2932886 3.056692 1.3165131C 3.0702395 1.3397374 3.093461 1.3556885 3.1200001 1.36C 3.146575 1.3658701 3.1743946 1.3606553 3.1970391 1.3455588C 3.219684 1.3304622 3.2351973 1.3067883 3.24 1.28" stroke="none" fill="#FFFFFF" fill-rule="nonzero" />
</g>
</svg>